<?xml version="1.0" encoding="utf-8"?>
<!-- Generator: Adobe Illustrator 24.0.3, SVG Export Plug-In . SVG Version: 6.00 Build 0)  -->
<svg version="1.1" id="Layer_1" xmlns="http://www.w3.org/2000/svg" xmlns:xlink="http://www.w3.org/1999/xlink" x="0px" y="0px"
	 viewBox="0 0 250 250" style="enable-background:new 0 0 250 250;" xml:space="preserve">
<style type="text/css">
	.st0{fill:#C5CCE0;}
	.st1{fill:#FFFFFF;}
</style>
<title>Untitled-4</title>
<rect class="st0" width="250" height="250"/>
<g>
	<path class="st1" d="M173.4,174.4c-2.9-19.9-10.1-39.6-25.7-49.2c-13.3,10.5-32.1,10.5-45.5,0c-15.6,9.5-22.7,29.2-25.7,49.2
		c-0.5,3.9,2.2,7.5,6,8c0.3,0,0.7,0.1,1,0.1h82.8c3.9,0,7.1-3.2,7.1-7.1C173.5,175.1,173.5,174.7,173.4,174.4z"/>
	<path class="st1" d="M125,67.5c-15.9,0-28.8,12.9-28.8,28.7S109.1,125,125,125s28.8-12.9,28.8-28.8v0
		C153.7,80.4,140.9,67.5,125,67.5z M125,86.9c-5.2,0-9.4,4.2-9.4,9.4c0,2.4-1.9,4.3-4.3,4.3c-2.4,0-4.3-1.9-4.3-4.3
		c0-9.9,8-17.9,18-17.9c2.4-0.1,4.4,1.8,4.4,4.1c0.1,2.4-1.8,4.4-4.1,4.4C125.2,86.9,125.1,86.9,125,86.9z"/>
</g>
</svg>
