<?xml version="1.0" encoding="utf-8"?>
<!-- Generator: Adobe Illustrator 24.0.3, SVG Export Plug-In . SVG Version: 6.00 Build 0)  -->
<svg version="1.1" id="Layer_1" xmlns="http://www.w3.org/2000/svg" xmlns:xlink="http://www.w3.org/1999/xlink" x="0px" y="0px"
	 viewBox="0 0 250 250" style="enable-background:new 0 0 250 250;" xml:space="preserve">
<style type="text/css">
	.st0{fill:#C5CCE0;}
	.st1{fill:#FFFFFF;}
</style>
<title>Camara</title>
<rect class="st0" width="250" height="250"/>
<g>
	<path class="st1" d="M125,166c-19.2,0-34.8-15.6-34.8-34.8s15.6-34.8,34.8-34.8s34.8,15.6,34.8,34.8c0,0,0,0,0,0
		C159.8,150.4,144.2,165.9,125,166z M125,103.8c-15.1,0-27.3,12.2-27.3,27.3c0,15.1,12.2,27.3,27.3,27.3c15.1,0,27.3-12.2,27.3-27.3
		c0,0,0,0,0,0C152.3,116,140.1,103.8,125,103.8z"/>
	<circle class="st1" cx="174.7" cy="103.5" r="7.2"/>
	<path class="st1" d="M182.6,182.5H67.4c-9,0-16.3-7.3-16.4-16.3V95.8c0-9,7.3-16.3,16.4-16.3h23c0.7-6.8,6.5-12,13.3-12h43.8
		c6.9,0,12.6,5.2,13.3,12h21.7c9,0,16.3,7.3,16.4,16.3v70.4C199,175.2,191.6,182.5,182.6,182.5z M67.4,87c-4.9,0-8.8,3.9-8.8,8.8
		c0,0,0,0,0,0v70.4c0,4.9,4,8.8,8.8,8.8c0,0,0,0,0,0h115.2c4.9,0,8.8-3.9,8.8-8.7c0,0,0,0,0,0V95.8c0-4.9-4-8.8-8.8-8.8c0,0,0,0,0,0
		h-24.2c-2.7,0-5-2.2-5-5v-1.2c0-3.2-2.6-5.8-5.9-5.8h-43.8c-3.2,0-5.8,2.6-5.9,5.8v1.2c0,2.7-2.2,5-5,5H67.4z"/>
</g>
</svg>
