<svg xmlns="http://www.w3.org/2000/svg" xmlns:xlink="http://www.w3.org/1999/xlink" viewBox="0 0 1870.89 586.1"><defs><style>.cls-1{isolation:isolate;}.cls-2{fill:#fff;}.cls-3{fill:#9beb7e;}.cls-4,.cls-9{opacity:0.5;mix-blend-mode:multiply;}.cls-4{fill:url(#linear-gradient);}.cls-5{fill:url(#linear-gradient-2);}.cls-6{fill:url(#linear-gradient-3);}.cls-7{fill:url(#linear-gradient-4);}.cls-8{fill:#606bd9;}.cls-9{fill:url(#linear-gradient-5);}</style><linearGradient id="linear-gradient" x1="1097.6" y1="299.6" x2="837.35" y2="223.89" gradientUnits="userSpaceOnUse"><stop offset="0" stop-color="#fff"/><stop offset="0.34" stop-color="#fdfdfd"/><stop offset="0.48" stop-color="#f6f6f6"/><stop offset="0.57" stop-color="#eaeaea"/><stop offset="0.65" stop-color="#d9d9d9"/><stop offset="0.72" stop-color="#c2c2c2"/><stop offset="0.79" stop-color="#a6a6a6"/><stop offset="0.84" stop-color="#858585"/><stop offset="0.9" stop-color="#5e5e5e"/><stop offset="0.94" stop-color="#333"/><stop offset="0.99" stop-color="#040404"/><stop offset="0.99"/></linearGradient><linearGradient id="linear-gradient-2" x1="134.34" y1="96.61" x2="356.42" y2="318.69" gradientUnits="userSpaceOnUse"><stop offset="0" stop-color="#f4854a"/><stop offset="1" stop-color="#04b1ac"/></linearGradient><linearGradient id="linear-gradient-3" x1="354.14" y1="168.79" x2="278.43" y2="251.85" gradientUnits="userSpaceOnUse"><stop offset="0" stop-color="#fff"/><stop offset="0.37" stop-color="#fdfdfd"/><stop offset="0.51" stop-color="#f6f6f6"/><stop offset="0.6" stop-color="#ebebeb"/><stop offset="0.68" stop-color="#dadada"/><stop offset="0.75" stop-color="#c4c4c4"/><stop offset="0.8" stop-color="#a8a8a8"/><stop offset="0.86" stop-color="#888"/><stop offset="0.91" stop-color="#626262"/><stop offset="0.95" stop-color="#373737"/><stop offset="0.99" stop-color="#090909"/><stop offset="1"/></linearGradient><linearGradient id="linear-gradient-4" x1="84.65" y1="157.56" x2="330.43" y2="329.92" gradientUnits="userSpaceOnUse"><stop offset="0" stop-color="#fff"/><stop offset="0.29" stop-color="#fdfdfd"/><stop offset="0.43" stop-color="#f5f5f5"/><stop offset="0.53" stop-color="#e8e8e8"/><stop offset="0.62" stop-color="#d6d6d6"/><stop offset="0.7" stop-color="#bebebe"/><stop offset="0.77" stop-color="#a1a1a1"/><stop offset="0.84" stop-color="#7d7d7d"/><stop offset="0.9" stop-color="#555"/><stop offset="0.96" stop-color="#282828"/><stop offset="1"/></linearGradient><linearGradient id="linear-gradient-5" x1="1742.35" y1="252.67" x2="1584.05" y2="230.43" gradientUnits="userSpaceOnUse"><stop offset="0" stop-color="#fff"/><stop offset="0.25" stop-color="#fdfdfd"/><stop offset="0.39" stop-color="#f5f5f5"/><stop offset="0.5" stop-color="#e7e7e7"/><stop offset="0.59" stop-color="#d4d4d4"/><stop offset="0.68" stop-color="#bbb"/><stop offset="0.75" stop-color="#9c9c9c"/><stop offset="0.83" stop-color="#777"/><stop offset="0.89" stop-color="#4d4d4d"/><stop offset="0.96" stop-color="#1e1e1e"/><stop offset="0.99"/></linearGradient></defs><title>Logos_Dploy</title><g class="cls-1"><g id="Layer_1" data-name="Layer 1"><path class="cls-2" d="M760.13,492.07a5.91,5.91,0,0,1-1.76,4.35,6.38,6.38,0,0,1-4.75,1.76,6.57,6.57,0,0,1-5.85-3.25L725.39,459h-19v32.4a6.65,6.65,0,0,1-1.89,4.81,6.46,6.46,0,0,1-4.87,1.95,6.66,6.66,0,0,1-6.77-6.76V403.34a6.5,6.5,0,0,1,2-4.88,6.69,6.69,0,0,1,4.82-1.88h23.41a36.22,36.22,0,0,1,17.24,4,29.22,29.22,0,0,1,11.84,11.32,32.56,32.56,0,0,1,4.23,16.65,29.06,29.06,0,0,1-17.44,27.19l19.91,32A8.07,8.07,0,0,1,760.13,492.07Zm-37.08-45.54q8.85,0,14.57-5a16.41,16.41,0,0,0,5.73-12.95,18.56,18.56,0,0,0-5.73-14.05q-5.72-5.46-14.57-5.46H706.4v37.46Z"/><path class="cls-2" d="M836,465.59a5.92,5.92,0,0,1-4.29,1.63H782.24a22.93,22.93,0,0,0,8.27,14.7,25.49,25.49,0,0,0,16.71,5.59,25.17,25.17,0,0,0,8.13-1.43,24.07,24.07,0,0,0,7-3.51,6.79,6.79,0,0,1,4.3-1.43,5.59,5.59,0,0,1,3.9,1.3,5.69,5.69,0,0,1,2.34,4.42,4.73,4.73,0,0,1-2.08,3.91,36,36,0,0,1-11,5.72,39.74,39.74,0,0,1-31.68-2.41,33.5,33.5,0,0,1-13.21-12.81,36.48,36.48,0,0,1-4.75-18.6A38.5,38.5,0,0,1,774.63,444a32.52,32.52,0,0,1,12.49-12.88,35.66,35.66,0,0,1,18.15-4.62,32.68,32.68,0,0,1,17.3,4.42,29.15,29.15,0,0,1,11.19,12.36,40.77,40.77,0,0,1,3.9,18.21A5.43,5.43,0,0,1,836,465.59Zm-46.12-22.7a23.39,23.39,0,0,0-7.48,13.92H825.7q-1.19-8.71-6.51-13.92t-13.92-5.2Q795.78,437.69,789.85,442.89Z"/><path class="cls-2" d="M918.19,398.4a6.48,6.48,0,0,1,1.82,4.81v59.33a36.19,36.19,0,0,1-4.75,18.4,34.93,34.93,0,0,1-12.87,13,35.33,35.33,0,0,1-18.15,4.75A36,36,0,0,1,866,494a34.21,34.21,0,0,1-13-13,36.65,36.65,0,0,1-4.68-18.4,38.78,38.78,0,0,1,4.36-18.41,32.83,32.83,0,0,1,12-12.95,31.75,31.75,0,0,1,17-4.68,31.93,31.93,0,0,1,25.1,11.84V403.21a6.37,6.37,0,0,1,1.89-4.81,6.58,6.58,0,0,1,4.75-1.82A6.52,6.52,0,0,1,918.19,398.4ZM896,483.81a22.42,22.42,0,0,0,8.26-8.79,26,26,0,0,0,3-12.48,25.64,25.64,0,0,0-3-12.43,22.57,22.57,0,0,0-8.26-8.72,23.39,23.39,0,0,0-23.55,0,23,23,0,0,0-8.32,8.72,25.25,25.25,0,0,0-3.06,12.43A25.55,25.55,0,0,0,864.14,475a22.86,22.86,0,0,0,8.32,8.79,23.39,23.39,0,0,0,23.55,0Z"/><path class="cls-2" d="M945.31,412.9a8.48,8.48,0,1,1,6.05,2.54A8.24,8.24,0,0,1,945.31,412.9Zm1.31,83.39a6.41,6.41,0,0,1-1.89-4.74v-57.9a6.39,6.39,0,0,1,1.89-4.81A6.6,6.6,0,0,1,958,433.65v57.9a6.56,6.56,0,0,1-1.82,4.74,7,7,0,0,1-9.56,0Z"/><path class="cls-2" d="M992,496a31.93,31.93,0,0,1-12.23-7.16,5.48,5.48,0,0,1-1.69-4,6.06,6.06,0,0,1,2.6-5.07,7.86,7.86,0,0,1,4.56-1.82,7,7,0,0,1,4.94,2.34,20.18,20.18,0,0,0,7.42,4.75,27.64,27.64,0,0,0,10.53,2c4.95,0,8.78-.82,11.52-2.47s4.09-3.86,4.09-6.63-1.34-4.93-4-6.7-7.24-3.28-13.66-4.49q-25-4.81-25-20.56a16.05,16.05,0,0,1,3.78-10.79,23,23,0,0,1,9.88-6.64,38.06,38.06,0,0,1,13-2.21,39.89,39.89,0,0,1,15.16,2.73,25.9,25.9,0,0,1,10.6,7.55,6.56,6.56,0,0,1,1.69,4.16,5.2,5.2,0,0,1-2.21,4,6,6,0,0,1-3.64,1,8.9,8.9,0,0,1-6.12-2.47,19.47,19.47,0,0,0-6.89-4.23,27.87,27.87,0,0,0-8.85-1.23,21.09,21.09,0,0,0-9.82,2q-3.84,2-3.84,5.66a7.16,7.16,0,0,0,1.3,4.36,11.54,11.54,0,0,0,4.95,3.25,62,62,0,0,0,10.54,2.93q14.18,2.86,20.09,7.94a16.48,16.48,0,0,1,5.92,13.14,19.13,19.13,0,0,1-3.25,10.86,21.61,21.61,0,0,1-9.56,7.67,37.17,37.17,0,0,1-15.16,2.8A50.09,50.09,0,0,1,992,496Z"/><path class="cls-2" d="M1087.64,487a6.81,6.81,0,0,1,1.62,4.69,5.84,5.84,0,0,1-2.14,4.68,8.25,8.25,0,0,1-5.53,1.82h-2.35a21.41,21.41,0,0,1-11.64-3.32,23,23,0,0,1-8.26-9,27.3,27.3,0,0,1-3-12.88V440.81h-6a6.26,6.26,0,0,1-4.42-1.56,5.08,5.08,0,0,1-1.69-3.9,5.39,5.39,0,0,1,1.69-4.17,6.26,6.26,0,0,1,4.42-1.56h6V410.89a6.51,6.51,0,1,1,13,0v18.73h11.06a6.26,6.26,0,0,1,4.42,1.56,5.42,5.42,0,0,1,1.69,4.17,5.11,5.11,0,0,1-1.69,3.9,6.26,6.26,0,0,1-4.42,1.56h-11.06v32.13a13.34,13.34,0,0,0,2.86,8.72,8.75,8.75,0,0,0,7,3.51h4.43A5.15,5.15,0,0,1,1087.64,487Z"/><path class="cls-3" d="M907.34,359.25v-.53h-.53v-.54h-.53v-.53h-.54v-.53h-.53v-.54h-.54v-.53h-.53v-.53h-.53V355h-.54v-.53h-.53v-.54H902v-.53h-.53v-.53h-.53v-.54h-.54v-.53h-.53v-.54h-.54v-.53h-.53v-.53h-.53v-.54h-.54v-.53h-.53v-.54h-.54V348h-.53v-.53h-.53V347h-.54v-.53h-.53v-.54H894v-.53h-.53v-.53h-.53v-.54h-.54v-.53h-.53v-.54h-.54v-.53h-.53v-.53h-.53v-.54h-.54v-.53h-.53v-.54h-.54V340h-.53v-.53h-.53V339h-.54v-.53h-.53v-.54H886v-.53h-.53v-.53h-.53v-.54h-.54v-.53h-.53v-.54h-.54v-.53h-.53v-.53h-.53v-.54h-.54v-.53h-.53v-.54h-.54V332h-.53v-.53h-.53V331H879v-.53h-.53v-.54H878v-.53h-.53v-.53h-.53v-.54h-.54v-.53h-.53v-.54h-.54v-.53h-.53v-.53h-.53v-.54h-.54v-.53h-.53v-.54h-.54V324h-.53v-.53h-.53v-.54H871v-.53h-.53v-.54H870v-.53h-.53v-.53h-.53v-.54h-.54v-.53h-.53v-.54h-.54v-.53h-.53v-.53h-.53v-.54h-.54v-.53h-.53v-.54h-.53V316h-.54v-.53h-.53v-.54H863v-.53h-.53v-.54H862v-.53h-.54v-.53h-.53v-.54h-.54v-.53h-.53v-.54h-.53v-.53h-.54v-.53h-.53v-.54h-.54v-.53h-.53v-.54h-.53V308h-.54v-.53h-.53v-.54H855v-.53h-.53v-.54H854v-.53h-.54v-.53h-.53v-.54h-.54v-.53h-.53v-.54h-.53v-.53h-.54v-.53h-.53v-.54h-.54v-.53h-.53v-.54h-.53V300h-.54v-.53h-.53v-.54H847v-.53h-.53v-.54h-.53v-.53h-.54v-.53h-.53v-.54h-.54v-.53h-.53v-.54h-.53v-.53h-.54v-.53h-.53v-.54h-.54V293h-.53v-.54h-.53V292h-.54v-.53h-.53v-.54H839v-.53h-.53v-.54h-.53V129c10.69-2.15,26-3.51,40.51-3.51,22.36,0,37.09,4.25,47.26,13.42.66.59,1.3,1.21,1.92,1.85l.29.3c.18.17.36.35.53.53l.54.53.53.54.54.53.53.54c.18.17.36.35.53.53l.54.53.53.54.54.53.53.54c.18.17.36.35.53.53l.54.53.53.54.54.53.53.54c.18.17.36.35.53.53l.54.53.53.54.54.53.53.54c.18.17.36.35.53.53l.54.53.53.54.54.53.53.54c.18.17.36.35.53.53l.54.53.53.54c.18.17.36.35.53.53l.54.54c.18.17.36.35.53.53l.54.53.53.54c.18.17.36.35.53.53l.54.54c.18.17.36.35.53.53l.54.53.53.54.53.53.54.54c.18.17.36.35.53.53l.54.53.53.54c.18.17.36.35.53.53l.54.54.53.53.54.53.53.54c.18.17.36.35.53.53l.54.54c.18.17.36.35.53.53l.54.53.53.54c.18.17.36.35.53.53l.54.54c.18.17.36.35.53.53l.54.53.53.54c.18.17.36.35.53.53l.54.54.53.53.54.53.53.54c.18.17.36.35.53.53l.54.54c.18.17.36.35.53.53l.54.53.53.54c.18.17.36.35.53.53l.54.54c.18.17.36.35.53.53l.54.53.53.54c.18.17.36.35.53.53l.54.54c.18.17.36.35.53.53l.54.53.53.54c.18.17.36.35.53.53l.54.54c.18.17.36.35.53.53l.54.53.53.54c.18.17.36.35.53.53l.54.54c.18.17.36.35.53.53l.54.53.53.54c.18.17.36.35.53.53l.54.54c.18.17.36.35.53.53l.54.53.53.54.53.53.54.54c.18.17.36.35.53.53l.54.53.53.54c.18.17.36.35.53.53l.54.54c.18.17.36.35.53.53l.54.53.53.54c.18.17.36.35.53.53l.54.54c.18.17.36.35.53.53l.54.53.53.54c.18.17.36.35.53.53l.54.54c.18.17.36.35.53.53l.54.53.53.54c.18.17.36.35.53.53l.54.54.53.53.54.53.53.54c.18.17.36.35.53.53l.54.54c.18.17.36.35.53.53l.54.53.53.54c.18.17.36.35.53.53s.36.35.54.54.36.35.53.53l.54.53.53.54c.18.17.36.35.53.53l.54.54c.18.17.36.35.53.53l.54.53.53.54c.18.17.36.35.53.53l.54.53.53.54.54.53.53.54c.18.17.36.35.53.53l.54.53.53.54.54.53.53.54c.18.17.36.35.53.53l.54.53.53.54.54.53.53.54.53.53.54.53.53.54.54.53.53.54c.18.17.36.35.53.53l.54.53.53.54.54.53.53.54c.18.17.36.35.53.53l.54.53.53.54.54.53.53.54.53.53.54.53.53.54.54.53.53.54c.18.17.36.35.53.53l.54.53.53.54c.18.17.36.35.53.53l.54.54c.18.17.36.35.53.53l.54.53.53.54.54.53.53.54c.18.17.36.35.53.53l.54.53.53.54c.18.17.36.35.53.53l.54.54.53.53.54.53.53.54c.17.16.33.32.49.49L1039,229.53a31,31,0,0,0,0-43.76L913,59.68a31,31,0,0,0-43.77,0L743.1,185.77a30.93,30.93,0,0,0,0,43.76L869.18,355.62a31,31,0,0,0,38.7,4.1v-.47Z"/><path class="cls-3" d="M1027.72,240.85c-.16-.17-.32-.33-.49-.49l-.53-.54-.54-.53-.53-.53-.54-.54c-.17-.18-.35-.36-.53-.53l-.53-.54-.54-.53c-.17-.18-.35-.36-.53-.53l-.53-.54-.54-.53-.53-.54-.54-.53c-.17-.18-.35-.36-.53-.53l-.54-.54c-.17-.18-.35-.36-.53-.53l-.53-.54-.54-.53c-.17-.18-.35-.36-.53-.53l-.53-.54-.54-.53-.53-.54-.54-.53-.53-.53-.53-.54-.54-.53-.53-.54-.54-.53c-.17-.18-.35-.36-.53-.53l-.53-.54-.54-.53-.53-.54-.54-.53c-.17-.18-.35-.36-.53-.53l-.53-.54-.54-.53-.53-.54-.54-.53-.53-.53-.53-.54-.54-.53-.53-.54-.54-.53c-.17-.18-.35-.36-.53-.53l-.53-.54-.54-.53-.53-.54-.54-.53c-.17-.18-.35-.36-.53-.53l-.53-.54-.54-.53-.53-.54-.54-.53c-.17-.18-.35-.36-.53-.53l-.53-.54-.54-.53c-.17-.18-.35-.36-.53-.53l-.54-.54c-.17-.18-.35-.36-.53-.53l-.53-.54-.54-.53c-.17-.18-.35-.36-.53-.53s-.36-.36-.54-.54-.35-.36-.53-.53l-.53-.54-.54-.53c-.17-.18-.35-.36-.53-.53l-.54-.54c-.17-.18-.35-.36-.53-.53l-.53-.54-.54-.53-.53-.53-.54-.54c-.17-.18-.35-.36-.53-.53l-.53-.54-.54-.53c-.17-.18-.35-.36-.53-.53l-.54-.54c-.17-.18-.35-.36-.53-.53l-.53-.54-.54-.53c-.17-.18-.35-.36-.53-.53l-.54-.54c-.17-.18-.35-.36-.53-.53l-.53-.54-.54-.53c-.17-.18-.35-.36-.53-.53l-.54-.54c-.17-.18-.35-.36-.53-.53l-.53-.54-.54-.53c-.17-.18-.35-.36-.53-.53l-.54-.54-.53-.53-.53-.54-.54-.53c-.17-.18-.35-.36-.53-.53l-.54-.54c-.17-.18-.35-.36-.53-.53l-.53-.54-.54-.53c-.17-.18-.35-.36-.53-.53l-.54-.54c-.17-.18-.35-.36-.53-.53l-.53-.54-.54-.53c-.17-.18-.35-.36-.53-.53l-.54-.54c-.17-.18-.35-.36-.53-.53l-.53-.54-.54-.53c-.17-.18-.35-.36-.53-.53l-.54-.54c-.17-.18-.35-.36-.53-.53l-.53-.54-.54-.53c-.17-.18-.35-.36-.53-.53l-.54-.54c-.17-.18-.35-.36-.53-.53l-.53-.54-.54-.53c-.17-.18-.35-.36-.53-.53l-.54-.54c-.17-.18-.35-.36-.53-.53l-.53-.54-.54-.53-.53-.53-.54-.54c-.17-.18-.35-.36-.53-.53l-.53-.54-.54-.53c-.17-.18-.35-.36-.53-.53l-.54-.54c-.17-.18-.35-.36-.53-.53l-.53-.54-.54-.53c-.17-.18-.35-.36-.53-.53l-.54-.54c-.17-.18-.35-.36-.53-.53l-.53-.54-.54-.53-.53-.53-.54-.54c-.17-.18-.35-.36-.53-.53l-.53-.54-.54-.53c-.17-.18-.35-.36-.53-.53l-.54-.54-.53-.53-.53-.54-.54-.53c-.17-.18-.35-.36-.53-.53l-.54-.54c-.17-.18-.35-.36-.53-.53l-.53-.54-.54-.53c-.17-.18-.35-.36-.53-.53l-.54-.54c-.17-.18-.35-.36-.53-.53l-.53-.54-.54-.53c-.17-.18-.35-.36-.53-.53l-.53-.54-.54-.53-.53-.54-.54-.53c-.17-.18-.35-.36-.53-.53l-.53-.54-.54-.53-.53-.54-.54-.53c-.17-.18-.35-.36-.53-.53l-.53-.54-.54-.53-.53-.54-.54-.53c-.17-.18-.35-.36-.53-.53l-.53-.54-.54-.53-.53-.54-.54-.53c-.17-.18-.35-.36-.53-.53l-.53-.54-.54-.53-.53-.54-.54-.53c-.17-.18-.35-.36-.53-.53l-.29-.3c-.62-.64-1.26-1.26-1.92-1.85-10.17-9.17-24.9-13.42-47.26-13.42-14.48,0-29.82,1.36-40.51,3.51V289.83h.53v.54H839v.53h.54v.54h.53V292h.54v.53h.53V293h.53v.53h.54v.54h.53v.53h.54v.53h.53v.54h.53v.53h.54v.54h.53v.53h.54v.53h.53v.54H847v.53h.54v.54h.53V300h.54v.53h.53v.54h.53v.53h.54v.54h.53v.53h.54v.53h.53v.54h.53v.53h.54v.54h.53v.53H854v.53h.53v.54H855v.53h.54v.54h.53V308h.54v.53h.53v.54h.53v.53h.54v.54h.53v.53h.54v.53h.53v.54h.53v.53h.54v.54h.53v.53H862v.53h.53v.54H863v.53h.54v.54h.53V316h.54v.53h.53v.54h.53v.53h.54v.54h.53v.53h.53v.53h.54v.54h.53v.53h.54v.54h.53v.53H870v.53h.54v.54H871v.53h.54v.54h.53V324h.53v.53h.54v.54h.53v.53h.54v.54h.53v.53h.53v.53h.54v.54h.53v.53h.54v.54h.53v.53H878v.53h.54v.54H879V331h.54v.54h.53V332h.53v.53h.54v.54h.53v.53h.54v.54h.53v.53h.53v.53h.54v.54h.53v.53h.54v.54h.53v.53H886v.53h.54v.54h.53V339h.54v.54h.53V340h.53v.53h.54v.54h.53v.53h.54v.54h.53v.53h.53v.53h.54v.54h.53v.53h.54v.54h.53v.53H894v.53h.54v.54h.53V347h.54v.54h.53V348h.53v.53h.54v.54h.53v.53h.54v.54h.53v.53h.53v.53h.54v.54h.53v.53h.54v.54h.53v.53H902v.53h.54v.54h.53V355h.54v.54h.53v.53h.53v.53h.54v.54h.53v.53h.54v.53h.53v.54h.53v.53h.54v.47a30.57,30.57,0,0,0,5.07-4.1Z"/><path class="cls-4" d="M1027.72,240.85c-.16-.17-.32-.33-.49-.49l-.53-.54-.54-.53-.53-.53-.54-.54c-.17-.18-.35-.36-.53-.53l-.53-.54-.54-.53c-.17-.18-.35-.36-.53-.53l-.53-.54-.54-.53-.53-.54-.54-.53c-.17-.18-.35-.36-.53-.53l-.54-.54c-.17-.18-.35-.36-.53-.53l-.53-.54-.54-.53c-.17-.18-.35-.36-.53-.53l-.53-.54-.54-.53-.53-.54-.54-.53-.53-.53-.53-.54-.54-.53-.53-.54-.54-.53c-.17-.18-.35-.36-.53-.53l-.53-.54-.54-.53-.53-.54-.54-.53c-.17-.18-.35-.36-.53-.53l-.53-.54-.54-.53-.53-.54-.54-.53-.53-.53-.53-.54-.54-.53-.53-.54-.54-.53c-.17-.18-.35-.36-.53-.53l-.53-.54-.54-.53-.53-.54-.54-.53c-.17-.18-.35-.36-.53-.53l-.53-.54-.54-.53-.53-.54-.54-.53c-.17-.18-.35-.36-.53-.53l-.53-.54-.54-.53c-.17-.18-.35-.36-.53-.53l-.54-.54c-.17-.18-.35-.36-.53-.53l-.53-.54-.54-.53c-.17-.18-.35-.36-.53-.53s-.36-.36-.54-.54-.35-.36-.53-.53l-.53-.54-.54-.53c-.17-.18-.35-.36-.53-.53l-.54-.54c-.17-.18-.35-.36-.53-.53l-.53-.54-.54-.53-.53-.53-.54-.54c-.17-.18-.35-.36-.53-.53l-.53-.54-.54-.53c-.17-.18-.35-.36-.53-.53l-.54-.54c-.17-.18-.35-.36-.53-.53l-.53-.54-.54-.53c-.17-.18-.35-.36-.53-.53l-.54-.54c-.17-.18-.35-.36-.53-.53l-.53-.54-.54-.53c-.17-.18-.35-.36-.53-.53l-.54-.54c-.17-.18-.35-.36-.53-.53l-.53-.54-.54-.53c-.17-.18-.35-.36-.53-.53l-.54-.54-.53-.53-.53-.54-.54-.53c-.17-.18-.35-.36-.53-.53l-.54-.54c-.17-.18-.35-.36-.53-.53l-.53-.54-.54-.53c-.17-.18-.35-.36-.53-.53l-.54-.54c-.17-.18-.35-.36-.53-.53l-.53-.54-.54-.53c-.17-.18-.35-.36-.53-.53l-.54-.54c-.17-.18-.35-.36-.53-.53l-.53-.54-.54-.53c-.17-.18-.35-.36-.53-.53l-.54-.54c-.17-.18-.35-.36-.53-.53l-.53-.54-.54-.53c-.17-.18-.35-.36-.53-.53l-.54-.54c-.17-.18-.35-.36-.53-.53l-.53-.54-.54-.53c-.17-.18-.35-.36-.53-.53l-.54-.54c-.17-.18-.35-.36-.53-.53l-.53-.54-.54-.53-.53-.53-.54-.54c-.17-.18-.35-.36-.53-.53l-.53-.54-.54-.53c-.17-.18-.35-.36-.53-.53l-.54-.54c-.17-.18-.35-.36-.53-.53l-.53-.54-.54-.53c-.17-.18-.35-.36-.53-.53l-.54-.54c-.17-.18-.35-.36-.53-.53l-.53-.54-.54-.53-.53-.53-.54-.54c-.17-.18-.35-.36-.53-.53l-.53-.54-.54-.53c-.17-.18-.35-.36-.53-.53l-.54-.54-.53-.53-.53-.54-.54-.53c-.17-.18-.35-.36-.53-.53l-.54-.54c-.17-.18-.35-.36-.53-.53l-.53-.54-.54-.53c-.17-.18-.35-.36-.53-.53l-.54-.54c-.17-.18-.35-.36-.53-.53l-.53-.54-.54-.53c-.17-.18-.35-.36-.53-.53l-.53-.54-.54-.53-.53-.54-.54-.53c-.17-.18-.35-.36-.53-.53l-.53-.54-.54-.53-.53-.54-.54-.53c-.17-.18-.35-.36-.53-.53l-.53-.54-.54-.53-.53-.54-.54-.53c-.17-.18-.35-.36-.53-.53l-.53-.54-.54-.53-.53-.54-.54-.53c-.17-.18-.35-.36-.53-.53l-.53-.54-.54-.53-.53-.54-.54-.53c-.17-.18-.35-.36-.53-.53l-.29-.3c-.62-.64-1.26-1.26-1.92-1.85-10.17-9.17-24.9-13.42-47.26-13.42-14.48,0-29.82,1.36-40.51,3.51V289.83h.53v.54H839v.53h.54v.54h.53V292h.54v.53h.53V293h.53v.53h.54v.54h.53v.53h.54v.53h.53v.54h.53v.53h.54v.54h.53v.53h.54v.53h.53v.54H847v.53h.54v.54h.53V300h.54v.53h.53v.54h.53v.53h.54v.54h.53v.53h.54v.53h.53v.54h.53v.53h.54v.54h.53v.53H854v.53h.53v.54H855v.53h.54v.54h.53V308h.54v.53h.53v.54h.53v.53h.54v.54h.53v.53h.54v.53h.53v.54h.53v.53h.54v.54h.53v.53H862v.53h.53v.54H863v.53h.54v.54h.53V316h.54v.53h.53v.54h.53v.53h.54v.54h.53v.53h.53v.53h.54v.54h.53v.53h.54v.54h.53v.53H870v.53h.54v.54H871v.53h.54v.54h.53V324h.53v.53h.54v.54h.53v.53h.54v.54h.53v.53h.53v.53h.54v.54h.53v.53h.54v.54h.53v.53H878v.53h.54v.54H879V331h.54v.54h.53V332h.53v.53h.54v.54h.53v.53h.54v.54h.53v.53h.53v.53h.54v.54h.53v.53h.54v.54h.53v.53H886v.53h.54v.54h.53V339h.54v.54h.53V340h.53v.53h.54v.54h.53v.53h.54v.54h.53v.53h.53v.53h.54v.54h.53v.53h.54v.54h.53v.53H894v.53h.54v.54h.53V347h.54v.54h.53V348h.53v.53h.54v.54h.53v.53h.54v.54h.53v.53h.53v.53h.54v.54h.53v.53h.54v.54h.53v.53H902v.53h.54v.54h.53V355h.54v.54h.53v.53h.53v.53h.54v.54h.53v.53h.54v.53h.53v.54h.53v.53h.54v.47a30.57,30.57,0,0,0,5.07-4.1Z"/><path class="cls-2" d="M837.93,129c10.69-2.15,26-3.51,40.51-3.51,22.36,0,37.09,4.25,47.26,13.42,8,7.14,12.79,18.25,12.79,31,0,21.42-13.68,35.67-30.74,41.55v.6c12.44,4.36,20,16.12,23.92,33,5.36,22.8,9.22,38.39,12.54,44.76H922.36c-2.56-4.71-6.25-18.62-10.71-39-4.84-22.33-13.67-31-32.74-31.63H859v70.67h-21Zm21,74.24H880.5c22.54,0,36.82-12.28,36.82-31,0-21.19-15.28-30.39-37.49-30.42-10.22,0-17.28.93-20.86,1.85Z"/><circle class="cls-5" cx="245.38" cy="207.65" r="157.03"/><polygon class="cls-6" points="334.68 288.11 156.08 288.11 334.68 127.19 334.68 288.11"/><polygon class="cls-7" points="156.08 288.11 334.68 288.11 156.08 127.19 156.08 288.11"/><path class="cls-2" d="M139.48,398.53a6.52,6.52,0,0,1,2,4.81v88.08a6.46,6.46,0,0,1-2,4.81,6.62,6.62,0,0,1-4.75,1.95,6.66,6.66,0,0,1-6.76-6.76V426.76L96.42,490.9a6.72,6.72,0,0,1-5.85,3.38,6.52,6.52,0,0,1-6.24-4l-31.1-62.32v63.49a6.77,6.77,0,1,1-13.53,0V403.34a6.76,6.76,0,0,1,12.75-3.12l38.64,77.41,37.6-77.41a6.8,6.8,0,0,1,10.79-1.69Z"/><path class="cls-2" d="M216.56,431.25a34.89,34.89,0,0,1,12.88,13,36.22,36.22,0,0,1,4.75,18.4v29a6.64,6.64,0,1,1-13.27,0v-4.82A32.75,32.75,0,0,1,178.84,494a32.76,32.76,0,0,1-12-12.95,38.76,38.76,0,0,1-4.36-18.41,36.68,36.68,0,0,1,4.68-18.4,34.21,34.21,0,0,1,12.95-13,36,36,0,0,1,18.28-4.75A35.27,35.27,0,0,1,216.56,431.25Zm-6.37,52.55a22.48,22.48,0,0,0,8.26-8.71,25.76,25.76,0,0,0,3-12.43,26.09,26.09,0,0,0-3-12.48,23,23,0,0,0-31.81-8.79,22.86,22.86,0,0,0-8.32,8.79,25.58,25.58,0,0,0-3.06,12.48,25.25,25.25,0,0,0,3.06,12.43,22.85,22.85,0,0,0,8.32,8.71,23.33,23.33,0,0,0,23.55,0Z"/><path class="cls-2" d="M288.24,487a6.77,6.77,0,0,1,1.63,4.69,5.87,5.87,0,0,1-2.15,4.68,8.25,8.25,0,0,1-5.52,1.82h-2.35a21.33,21.33,0,0,1-11.64-3.32,23,23,0,0,1-8.26-9,27.3,27.3,0,0,1-3-12.88V440.81h-6a6.26,6.26,0,0,1-4.42-1.56,5.08,5.08,0,0,1-1.69-3.9,5.39,5.39,0,0,1,1.69-4.17,6.26,6.26,0,0,1,4.42-1.56h6V410.89a6.51,6.51,0,1,1,13,0v18.73h11a6.27,6.27,0,0,1,4.43,1.56,5.42,5.42,0,0,1,1.69,4.17,5.11,5.11,0,0,1-1.69,3.9,6.27,6.27,0,0,1-4.43,1.56H270v32.13a13.34,13.34,0,0,0,2.86,8.72,8.73,8.73,0,0,0,7,3.51h4.43A5.11,5.11,0,0,1,288.24,487Z"/><path class="cls-2" d="M319.92,494a33.36,33.36,0,0,1-12.81-12.95,37,37,0,0,1-4.62-18.41A38.38,38.38,0,0,1,307,444a32.27,32.27,0,0,1,12.55-12.88,36,36,0,0,1,18.21-4.62,32.3,32.3,0,0,1,25.5,11.71,4.84,4.84,0,0,1,1.3,3.38,5.69,5.69,0,0,1-2.86,4.81,5.08,5.08,0,0,1-3,.91,6.55,6.55,0,0,1-5.08-2.34,20.71,20.71,0,0,0-7.09-5.14,22.36,22.36,0,0,0-8.78-1.62q-10,0-16.26,6.7t-6.24,17.75a26.45,26.45,0,0,0,2.92,12.56,21.63,21.63,0,0,0,8.2,8.65,23.15,23.15,0,0,0,12,3.12q8.85,0,14.31-4.55a8.21,8.21,0,0,1,4.82-1.82,5.53,5.53,0,0,1,3.38,1.17,6,6,0,0,1,2.47,4.68,4.85,4.85,0,0,1-1.56,3.51q-9.36,8.73-23.42,8.72A36.57,36.57,0,0,1,319.92,494Z"/><path class="cls-2" d="M435.83,430.27A27.53,27.53,0,0,1,447,441.65q4,7.49,4,18v32a6.63,6.63,0,1,1-13.26,0v-32q0-10.53-5.66-15.93t-15-5.4a22.26,22.26,0,0,0-10,2.21,17.67,17.67,0,0,0-7,6,14.85,14.85,0,0,0-2.53,8.46v36.69a6.52,6.52,0,0,1-1.83,4.74,6.36,6.36,0,0,1-4.81,1.89,6.45,6.45,0,0,1-6.63-6.63V403.21a6.36,6.36,0,0,1,1.88-4.81,6.54,6.54,0,0,1,4.75-1.82,6.27,6.27,0,0,1,6.64,6.63v31.88a28.71,28.71,0,0,1,9.88-6.44,32.75,32.75,0,0,1,12.23-2.28A33.13,33.13,0,0,1,435.83,430.27Z"/><path class="cls-2" d="M385.46,510.24v-1a.85.85,0,0,1,.84-.84h15.28a.84.84,0,0,1,.84.84v1.05a.9.9,0,0,1-.21.56l-8.12,9a15.89,15.89,0,0,1,3.35.64,8.77,8.77,0,0,1,2.78,1.41,6.91,6.91,0,0,1,1.9,2.28,6.76,6.76,0,0,1,.71,3.19,7.66,7.66,0,0,1-.69,3.27,7.83,7.83,0,0,1-1.88,2.55,8.45,8.45,0,0,1-2.81,1.65,9.84,9.84,0,0,1-3.47.59,12.31,12.31,0,0,1-5.82-1.31,12.52,12.52,0,0,1-3.6-2.82.84.84,0,0,1,.09-1.16l.93-.83a.84.84,0,0,1,1.17,0,11.39,11.39,0,0,0,2.91,2.32,9,9,0,0,0,4.35,1,7.08,7.08,0,0,0,2.28-.37,5.49,5.49,0,0,0,1.85-1,5,5,0,0,0,1.23-1.66,4.86,4.86,0,0,0,.46-2.14,4.28,4.28,0,0,0-2.07-3.84,9.79,9.79,0,0,0-5.38-1.33h-1.11a.83.83,0,0,1-.79-.57l-.26-.77a.82.82,0,0,1,.16-.82l8.08-9.13H386.3A.85.85,0,0,1,385.46,510.24Z"/><path class="cls-2" d="M425.48,512.63a.82.82,0,0,1-1.16.17,12.66,12.66,0,0,0-2.33-1.42,7.7,7.7,0,0,0-3.3-.69,6.2,6.2,0,0,0-3.27.88A7.48,7.48,0,0,0,413,514a11.9,11.9,0,0,0-1.54,3.71,19.39,19.39,0,0,0-.54,4.73,12.49,12.49,0,0,1,1.24-1.54,7.73,7.73,0,0,1,1.63-1.29,8.68,8.68,0,0,1,2.1-.89,9.09,9.09,0,0,1,2.6-.35,10.84,10.84,0,0,1,3.53.57,8.69,8.69,0,0,1,2.93,1.66,8.12,8.12,0,0,1,2,2.6,7.7,7.7,0,0,1,.74,3.39A8.55,8.55,0,0,1,424.9,533a9.23,9.23,0,0,1-3,1.85,11.2,11.2,0,0,1-7.74-.06,9.11,9.11,0,0,1-3-2A10.45,10.45,0,0,1,409.7,531a9.43,9.43,0,0,1-1.05-2.16,16.08,16.08,0,0,1-.65-2.8,26,26,0,0,1-.22-3.63,20.69,20.69,0,0,1,.74-5.68,14.17,14.17,0,0,1,2.16-4.6,10.45,10.45,0,0,1,3.48-3.08,9.58,9.58,0,0,1,4.68-1.12,10.61,10.61,0,0,1,4.26.8,14.26,14.26,0,0,1,3,1.73.83.83,0,0,1,.15,1.17ZM424.1,524.4a5.28,5.28,0,0,0-1.33-1.81,6.35,6.35,0,0,0-2-1.19,7.7,7.7,0,0,0-2.64-.44,7.23,7.23,0,0,0-2.72.49,6.63,6.63,0,0,0-2.11,1.32,5.84,5.84,0,0,0-1.35,1.86,5.15,5.15,0,0,0-.47,2.18,5.79,5.79,0,0,0,.49,2.4,5.47,5.47,0,0,0,1.39,1.9,6.41,6.41,0,0,0,2.13,1.25,7.63,7.63,0,0,0,2.71.46,7.26,7.26,0,0,0,2.67-.47,6.17,6.17,0,0,0,2-1.3,5.5,5.5,0,0,0,1.29-1.94,6.2,6.2,0,0,0,.46-2.41A5.44,5.44,0,0,0,424.1,524.4Z"/><path class="cls-2" d="M435.37,508.41H449a.85.85,0,0,1,.84.84v1.1a.85.85,0,0,1-.84.84H437.2l-.57,8.51a17,17,0,0,1,2.38-.85,10.87,10.87,0,0,1,2.87-.32,11.15,11.15,0,0,1,3.61.57,9.19,9.19,0,0,1,2.92,1.61,7.38,7.38,0,0,1,1.94,2.57,8.16,8.16,0,0,1,.69,3.42,9,9,0,0,1-.69,3.59,8.19,8.19,0,0,1-1.94,2.78,8.48,8.48,0,0,1-3,1.78,11.21,11.21,0,0,1-3.84.63,11.65,11.65,0,0,1-5.26-1.2,16,16,0,0,1-3.64-2.45.85.85,0,0,1-.05-1.18l.86-.93a.84.84,0,0,1,1.18-.05,14.88,14.88,0,0,0,3,2.11,8.52,8.52,0,0,0,3.93,1,7.6,7.6,0,0,0,2.61-.44,5.87,5.87,0,0,0,2-1.24,5.8,5.8,0,0,0,1.79-4.26,5.35,5.35,0,0,0-.48-2.28,5.15,5.15,0,0,0-1.35-1.76,6.14,6.14,0,0,0-2.09-1.16,8.22,8.22,0,0,0-2.7-.42,10,10,0,0,0-3.06.43,15.13,15.13,0,0,0-2.1.86.8.8,0,0,1-.83,0l-1.21-.8a.82.82,0,0,1-.37-.74l.68-11.7A.84.84,0,0,1,435.37,508.41Z"/><path class="cls-8" d="M1625.23,340.28h-.44v-.44h-.44v-.44h-.43V339h-.44v-.43H1623v-.44h-.44v-.44h-.44v-.44h-.44v-.44h-.43v-.44h-.44v-.43h-.44v-.44H1620V335h-.44v-.44h-.44v-.44h-.43v-.44h-.44v-.43h-.44v-.44h-.44v-.44h-.44V332h-.44v-.44H1616v-.44h-.44v-.43h-.44v-.44h-.44v-.44h-.44v-.44h-.44v-.44h-.43v-.44H1613V328h-.44v-.44h-.44v-.44h-.44v-.44h-.44v-.44h-.43v-.44h-.44v-.43h-.44v-.44h-.44v-.44H1609v-.44h-.44v-.44h-.43v-.44h-.44v-.43h-.44v-.44h-.44v-.44h-.44v-.44h-.44V321h-.43v-.44h-.44v-.43h-.44v-.44h-.44v-.44h-.44v-.44h-.44v-.44h-.43v-.44h-.44v-.43H1602v-.44h-.44v-.44h-.44v-.44h-.44v-.44h-.43v-.44h-.44v-.43h-.44v-.44h-.44V314h-.44v-.44h-.44v-.44h-.43v-.44h-.44v-.43h-.44v-.44h-.44v-.44h-.44v-.44h-.44v-.44H1595V310h-.44v-.43h-.44v-.44h-.44v-.44h-.44v-.44h-.44v-.44h-.43v-.44h-.44V307h-.44v-.44H1591v-.44h-.44v-.44h-.44v-.44h-.43v-.44h-.44v-.43h-.44v-.44h-.44v-.44H1588V303h-.44v-.44h-.43v-.44h-.44v-.43h-.44v-.44h-.44v-.44h-.44v-.44h-.44V300h-.43v-.44H1584v-.43h-.44v-.44h-.44v-.44h-.44v-.44h-.44v-.44h-.43v-.43h-.44v-.44H1581V296h-.44v-.44h-.44v-.44h-.44v-.44h-.43v-.43h-.44v-.44h-.44v-.44h-.44v-.44h-.44v-.44H1577v-.44h-.43v-.43h-.44v-.44h-.44v-.44h-.44v-.44h-.44v-.44h-.44v-.44H1574V289h-.44v-.44h-.44V174.5h19.62l-.2-.19-.21-.22-.23-.22-.21-.22-.22-.22c-.08-.07-.15-.15-.22-.22l-.22-.21-.22-.23-.22-.21-.21-.23-.23-.21-.21-.22-.23-.22-.21-.22-.23-.22-.21-.22c-.07-.07-.15-.14-.22-.22l-.22-.22-.22-.21-.22-.23-.22-.21-.21-.23-.23-.21-.21-.23-.23-.21-.21-.22-.23-.22-.21-.22-.22-.22c-.08-.07-.15-.15-.22-.22l-.22-.21-.22-.23-.22-.21-.21-.23-.23-.21-.21-.22-.23-.22-.21-.22-.23-.22-.21-.22c-.07-.07-.15-.14-.22-.22l-.22-.22-.22-.21-.22-.23-.22-.21-.21-.23-.23-.21-.21-.22-.23-.22-.21-.22-.23-.22-.21-.22-.22-.22c-.08-.07-.15-.15-.22-.22l-.22-.21-.22-.23-.22-.21-.21-.23-.23-.21-.21-.22-.23-.22-.21-.22c-.08-.08-.15-.14-.22-.22s-.15-.15-.22-.22-.15-.14-.22-.22l-.22-.22-.22-.21-.22-.23-.22-.21-.21-.23-.23-.21-.21-.22-.23-.22-.21-.22c-.08-.08-.15-.14-.22-.22l-.22-.22-.22-.22a17.28,17.28,0,0,1-5.36-12.66,17.56,17.56,0,0,1,5.36-12.89,17.31,17.31,0,0,1,12.66-5.36,17.6,17.6,0,0,1,12.89,5.36l.21.23.22.21.22.23.22.21.22.23.22.21.21.22c.08.08.16.14.23.22l.21.22.23.22.21.22.23.21.21.23.22.21.22.23.22.21c.08.07.14.15.22.23l.22.21.22.22c.07.08.15.14.22.22l.21.22.23.22.21.22.23.21.21.23.22.21.22.23.22.21.22.23.22.21.21.22c.08.08.16.14.23.22l.21.22.23.22.21.22.23.21.21.23.22.21.22.23.22.21.22.23.22.21.21.22c.08.08.16.14.23.22l.21.22.23.22.21.22.23.21.21.23.22.21.22.23.22.21.22.23.22.21.21.22c.08.08.16.14.23.22l.21.22.23.22.21.22.23.21.21.23.22.21.22.23.22.21c.08.07.14.15.22.23l.22.21.21.22c.08.08.16.14.23.22l.21.22.23.22.21.22.23.21.21.23.22.21.22.23.22.21c.08.07.14.15.22.23l.22.21.21.22.23.22.21.22.23.22.21.22.23.21.21.23.22.21.22.23.22.21c.08.07.14.15.22.22l.22.22.21.22.23.22.21.22.23.22.21.22.23.21.21.23.22.21.22.23.22.21c.08.07.14.15.22.22s.15.15.22.22l.21.22.23.22.21.22.23.22.21.22.23.21.21.23.22.21.22.23.22.21c.08.07.14.15.22.22l.22.22.21.22.23.22.21.22.23.22.21.22.23.21.21.23.22.21.22.23.22.21c.08.07.14.15.22.22s.15.15.22.22l.21.22.23.22.21.22.23.22.21.22.23.21.21.23.22.21.22.23.22.21c.08.07.14.15.22.22s.15.15.22.22l.21.22.23.22.21.22.23.22.21.22.23.21.21.23.22.21.22.23.22.21c.08.07.14.15.22.22s.15.15.22.22l.21.22.23.22.21.22.23.22.21.22.23.21.21.23.22.21.22.23.22.21c.08.07.14.15.22.22s.15.15.22.22l.21.22.23.22.21.22.23.22.21.22.22.21.22.23.22.21.22.23.22.21c.08.07.14.15.22.22s.15.15.22.22l.21.22.23.22.21.22.23.22.21.22.22.21.22.23.22.21.22.23.22.21c.08.07.14.15.22.22s.15.15.22.22l.21.22.23.22.21.22.23.22.21.22.22.21.22.23.22.21.22.23.22.21c.08.07.14.15.22.22l.22.22.21.22.23.22.21.22.23.22.21.22.22.21.22.23.22.21.22.23.22.21c.08.07.14.15.22.22s.15.14.22.22l.21.22.23.22.21.22.23.22.21.22.22.21.22.23.22.21.22.23.22.21c.08.07.14.15.22.22s.15.14.22.22l.21.22.23.22.21.22.23.22.21.22.22.21.22.23.22.21.22.23.22.21c.07.07.14.15.22.22s.15.14.22.22l.21.22.23.22.21.22.23.22.21.22.22.21.22.23.22.21.22.23.22.21c.08.07.14.15.22.22s.15.14.22.22l.21.22.23.22.21.22.23.22.21.22.22.21.22.23.22.21.22.23.22.21.22.22c.07.08.15.14.22.22l.21.22.23.22.21.22.23.22.21.22.22.21.22.23.22.21.22.23.22.21.22.22c.07.08.15.14.22.22l.21.22.23.22.21.22.23.22.21.22.22.21.22.23.22.21.22.23.22.21.22.22c.07.08.15.14.22.22l.21.22.23.22.21.22.23.22.21.22.22.21.22.23.22.21.22.23.22.21c.07.07.14.15.22.22s.15.14.22.22l.21.22.23.22.21.22.23.22.21.22.22.21.22.23.22.21.22.23.22.21.22.22c.07.08.15.14.22.22l.21.22.23.22.21.22.23.22.21.22.22.21.22.23.22.21.22.23.22.21.21.22c.08.08.16.14.23.22l.21.22.23.22.21.22.23.21.21.23.22.21.22.23.22.21.22.23.22.21.21.22c.08.08.16.14.23.22l.21.22.23.22.21.22.23.21.21.23.22.21.22.23.22.21.22.23.22.21.21.22c.08.08.16.14.23.22l.21.22.23.22.21.22.23.21.21.23.22.21.22.23.22.21.22.23.22.21.21.22c.08.08.16.14.23.22l.21.22.23.22.21.22.23.21.21.23.22.21.22.23.22.21c.08.07.14.15.22.23l.22.21.21.22c.08.08.16.14.23.22l.21.22.23.22.21.22.23.21.21.23.22.21.22.23.22.21c.08.07.14.15.22.23l.22.21.21.22c.08.08.16.14.23.22l.21.22.23.22.21.22.23.21.21.23.22.21.22.23.22.21.22.23.22.21.21.22c.08.08.16.14.23.22l.21.22.23.22.21.22.23.21.21.23.22.21.22.23.22.21.22.23.22.21.21.22.23.22.21.22.23.22.21.22.23.21.21.23.22.21.22.23.22.21c.08.07.14.15.22.23l.22.21.21.22.23.22.21.22.23.22.21.22.23.21.21.23.22.21.22.23.22.21c.08.07.14.15.22.22l.22.22.21.22.23.22.21.22.23.22.21.22.23.21.21.23.22.21.22.23.22.21.22.22c.07.08.15.15.22.22l.21.22.23.22.21.22.23.22.21.22.23.21.21.23.22.21.22.23.22.21c.08.07.14.15.22.22l.22.22.21.22.23.22.21.22.23.22.21.22.23.21.21.23.22.21.22.23.22.21.22.22c.07.08.15.15.22.22l.21.22.23.22.21.22.23.22.21.22.23.21.21.23.22.21.22.23.22.21c.08.07.14.15.22.22l.22.22.21.22.23.22.21.22.23.22.21.22.23.21.21.23.22.21.22.23.22.21.22.22c.07.08.15.15.22.22l.21.22.23.22.21.22.23.22.21.22.23.21.21.23.22.21.22.23.22.21c.08.07.14.15.22.22l.22.22.21.22.23.22.21.22.23.22.21.22.22.21.22.23.22.21.22.23.22.21.22.22c.07.08.15.15.22.22l.21.22.23.22.21.22.23.22.21.22.22.21.22.23.22.21.22.23.22.21c.08.07.14.15.22.22s.15.15.22.22l.21.22.23.22.21.22.23.22.21.22.22.21.22.23.22.21.22.23.22.21.15.16,18.89-18.89a31,31,0,0,0,0-43.76L1610.49,59.68a31,31,0,0,0-43.76,0L1440.64,185.77a31,31,0,0,0,0,43.76l126.09,126.09a31,31,0,0,0,43.76,0l14.91-14.9h-.17Z"/><path class="cls-8" d="M1717.54,248.26l-.22-.21-.22-.23-.22-.21-.22-.23-.22-.21-.21-.22-.23-.22-.21-.22-.23-.22-.21-.22c-.07-.07-.15-.14-.22-.22s-.14-.15-.22-.22l-.22-.21-.22-.23-.22-.21-.22-.23-.22-.21-.21-.22-.23-.22-.21-.22-.23-.22-.21-.22c-.07-.07-.15-.14-.22-.22l-.22-.22-.22-.21-.22-.23-.22-.21-.22-.23-.22-.21-.21-.22-.23-.22-.21-.22-.23-.22-.21-.22-.22-.22c-.08-.07-.14-.15-.22-.22l-.22-.21-.22-.23-.22-.21-.21-.23-.23-.21-.21-.22-.23-.22-.21-.22-.23-.22-.21-.22c-.07-.07-.15-.14-.22-.22l-.22-.22-.22-.21-.22-.23-.22-.21-.21-.23-.23-.21-.21-.22-.23-.22-.21-.22-.23-.22-.21-.22-.22-.22c-.08-.07-.14-.15-.22-.22l-.22-.21-.22-.23-.22-.21-.21-.23-.23-.21-.21-.22-.23-.22-.21-.22-.23-.22-.21-.22c-.07-.07-.15-.14-.22-.22l-.22-.22-.22-.21-.22-.23-.22-.21-.21-.23-.23-.21-.21-.22-.23-.22-.21-.22-.23-.22-.21-.22-.22-.22c-.08-.07-.14-.15-.22-.22l-.22-.21-.22-.23-.22-.21-.21-.23-.23-.21-.21-.22-.23-.22-.21-.22-.23-.22-.21-.22c-.07-.07-.15-.14-.22-.22l-.22-.22-.22-.21-.22-.23-.22-.21-.21-.23-.23-.21-.21-.22-.23-.22-.21-.22-.23-.22-.21-.22-.22-.22c-.08-.07-.14-.15-.22-.22l-.22-.21-.22-.23-.22-.21-.21-.23-.23-.21-.21-.22-.23-.22-.21-.22-.23-.22-.21-.22-.22-.21c-.08-.08-.14-.16-.22-.23l-.22-.21-.22-.23-.22-.21-.21-.23-.23-.21-.21-.22-.23-.22-.21-.22-.23-.22-.21-.22-.22-.21-.22-.23-.22-.21-.22-.23-.22-.21-.21-.23-.23-.21-.21-.22-.23-.22-.21-.22c-.07-.08-.15-.14-.23-.22l-.21-.22-.22-.21-.22-.23-.22-.21-.22-.23-.22-.21-.21-.23-.23-.21-.21-.22-.23-.22-.21-.22c-.07-.08-.15-.14-.23-.22l-.21-.22-.22-.21c-.08-.08-.14-.16-.22-.23l-.22-.21-.22-.23-.22-.21-.21-.23-.23-.21-.21-.22-.23-.22-.21-.22c-.07-.08-.15-.14-.23-.22l-.21-.22-.22-.21c-.08-.08-.14-.16-.22-.23l-.22-.21-.22-.23-.22-.21-.21-.23-.23-.21-.21-.22-.23-.22-.21-.22c-.07-.08-.15-.14-.23-.22l-.21-.22-.22-.21-.22-.23-.22-.21-.22-.23-.22-.21-.21-.23-.23-.21-.21-.22-.23-.22-.21-.22c-.07-.08-.15-.14-.23-.22l-.21-.22-.22-.21-.22-.23-.22-.21-.22-.23-.22-.21-.21-.23-.23-.21-.21-.22-.23-.22-.21-.22c-.07-.08-.15-.14-.23-.22l-.21-.22-.22-.21-.22-.23-.22-.21-.22-.23-.22-.21-.21-.23-.23-.21-.21-.22-.23-.22-.21-.22c-.07-.08-.15-.14-.23-.22l-.21-.22-.22-.21-.22-.23-.22-.21-.22-.23-.22-.21-.21-.22-.23-.22-.21-.22-.23-.22-.21-.22c-.07-.08-.15-.14-.22-.22l-.22-.22-.22-.21-.22-.23-.22-.21-.22-.23-.22-.21-.21-.22-.23-.22-.21-.22-.23-.22-.21-.22c-.07-.08-.15-.14-.22-.22s-.15-.15-.22-.22l-.22-.21-.22-.23-.22-.21-.22-.23-.22-.21-.21-.22-.23-.22-.21-.22-.23-.22-.21-.22c-.07-.08-.15-.14-.22-.22l-.22-.22-.22-.21-.22-.23-.22-.21-.22-.23-.22-.21-.21-.22-.23-.22-.21-.22-.23-.22-.21-.22c-.07-.08-.15-.14-.22-.22l-.22-.22-.22-.21-.22-.23-.22-.21-.22-.23-.22-.21-.21-.22-.23-.22-.21-.22-.23-.22-.21-.22c-.07-.08-.15-.14-.22-.22l-.22-.22-.22-.21-.22-.23-.22-.21-.22-.23-.22-.21-.21-.22-.23-.22-.21-.22-.23-.22-.21-.22c-.07-.08-.15-.14-.22-.22s-.14-.15-.22-.22l-.22-.21-.22-.23-.22-.21-.22-.23-.22-.21-.21-.22-.23-.22-.21-.22-.23-.22-.21-.22c-.07-.08-.15-.14-.22-.22s-.15-.15-.22-.22l-.22-.21-.22-.23-.22-.21-.22-.23-.22-.21-.21-.22-.23-.22-.21-.22-.23-.22-.21-.22c-.07-.08-.15-.14-.22-.22s-.14-.15-.22-.22l-.22-.21-.22-.23-.22-.21-.22-.23-.22-.21-.21-.22-.23-.22-.21-.22-.23-.22-.21-.22c-.07-.08-.15-.14-.22-.22s-.14-.15-.22-.22l-.22-.21-.22-.23-.22-.21-.22-.23-.22-.21-.21-.22-.23-.22-.21-.22-.23-.22-.21-.22-.22-.22c-.08-.07-.14-.15-.22-.22l-.22-.21-.22-.23-.22-.21-.22-.23-.22-.21-.21-.22-.23-.22-.21-.22-.23-.22-.21-.22c-.07-.07-.15-.14-.22-.22s-.14-.15-.22-.22l-.22-.21-.22-.23-.22-.21-.22-.23-.22-.21-.21-.22-.23-.22-.21-.22-.23-.22-.21-.22c-.07-.07-.15-.14-.22-.22s-.14-.15-.22-.22l-.22-.21-.22-.23-.22-.21-.22-.23-.22-.21-.21-.22-.23-.22-.21-.22-.23-.22-.21-.22c-.07-.07-.15-.14-.22-.22s-.14-.15-.22-.22l-.22-.21-.22-.23-.22-.21-.21-.23-.23-.21-.21-.22-.23-.22-.21-.22-.23-.22-.21-.22c-.07-.07-.15-.14-.22-.22s-.14-.15-.22-.22l-.22-.21-.22-.23-.22-.21-.21-.23-.23-.21-.21-.22-.23-.22-.21-.22-.23-.22-.21-.22c-.07-.07-.15-.14-.22-.22s-.14-.15-.22-.22l-.22-.21-.22-.23-.22-.21-.21-.23-.23-.21-.21-.22-.23-.22-.21-.22-.23-.22-.21-.22c-.07-.07-.15-.14-.22-.22s-.14-.15-.22-.22l-.22-.21-.22-.23-.22-.21-.21-.23-.23-.21-.21-.22-.23-.22-.21-.22-.23-.22-.21-.22-.22-.22c-.08-.07-.14-.15-.22-.22l-.22-.21-.22-.23-.22-.21-.21-.23-.23-.21-.21-.22-.23-.22-.21-.22-.23-.22-.21-.22c-.07-.07-.15-.14-.22-.22s-.14-.15-.22-.22l-.22-.21-.22-.23-.22-.21-.21-.23-.23-.21-.21-.22-.23-.22-.21-.22-.23-.22-.21-.22-.22-.22c-.08-.07-.14-.15-.22-.22l-.22-.21-.22-.23-.22-.21-.21-.23-.23-.21-.21-.22-.23-.22-.21-.22-.23-.22-.21-.22-.22-.21c-.08-.08-.14-.16-.22-.23l-.22-.21-.22-.23-.22-.21-.21-.23-.23-.21-.21-.22-.23-.22-.21-.22c-.07-.08-.15-.14-.23-.22l-.21-.22-.22-.21c-.08-.08-.14-.16-.22-.23l-.22-.21-.22-.23-.22-.21-.21-.23-.23-.21-.21-.22-.23-.22-.21-.22c-.07-.08-.15-.14-.23-.22l-.21-.22-.22-.21-.22-.23-.22-.21-.22-.23-.22-.21-.21-.23-.23-.21-.21-.22-.23-.22-.21-.22c-.07-.08-.15-.14-.23-.22l-.21-.22-.22-.21-.22-.23-.22-.21-.22-.23-.22-.21-.21-.23-.23-.21-.21-.22-.23-.22-.21-.22c-.07-.08-.15-.14-.23-.22l-.21-.22-.22-.21-.22-.23-.22-.21-.22-.23-.22-.21-.21-.23-.23-.21-.21-.22-.23-.22-.21-.22c-.07-.08-.15-.14-.22-.22l-.22-.22-.22-.21c-.08-.08-.14-.16-.22-.23l-.22-.21-.22-.23-.22-.21-.21-.23-.23-.21-.21-.22-.23-.22-.21-.22c-.07-.08-.15-.14-.23-.22l-.21-.22-.22-.21-.22-.23-.22-.21-.22-.23-.22-.21-.21-.23a17.6,17.6,0,0,0-12.89-5.36,17.31,17.31,0,0,0-12.66,5.36,17.56,17.56,0,0,0-5.36,12.89,17.28,17.28,0,0,0,5.36,12.66l.22.22.22.22c.07.08.14.14.22.22l.21.22.23.22.21.22.23.21.21.23.22.21.22.23.22.21.22.22c.07.08.15.15.22.22s.14.15.22.22.14.14.22.22l.21.22.23.22.21.22.23.21.21.23.22.21.22.23.22.21c.07.07.14.15.22.22l.22.22.21.22.23.22.21.22.23.22.21.22.23.21.21.23.22.21.22.23.22.21.22.22c.07.08.15.15.22.22l.21.22.23.22.21.22.23.22.21.22.23.21.21.23.22.21.22.23.22.21c.07.07.14.15.22.22l.22.22.21.22.23.22.21.22.23.21.21.23.23.21.21.23.22.21.22.23.22.21.22.22c.07.08.15.15.22.22l.21.22.23.22.21.22.23.22.21.22.23.21.21.23.22.21.22.23.22.21c.07.07.14.15.22.22l.22.22.21.22.23.22.21.22.2.19h-19.62V288.56h.44V289h.44v.43h.43v.44h.44v.44h.44v.44h.44v.44h.44v.44h.44v.43h.43v.44h.44v.44h.44v.44h.44v.44h.44v.44h.44v.43h.43v.44h.44v.44h.44V296h.44v.44h.44v.44h.44v.43h.43v.44h.44v.44h.44v.44h.44v.44h.44v.43h.44V300h.43v.44h.44v.44h.44v.44h.44v.44h.44v.43h.44v.44h.43V303h.44v.44h.44v.44h.44v.44h.44v.43h.44v.44h.43v.44h.44v.44h.44v.44h.44V307h.44v.43h.44v.44h.43v.44h.44v.44h.44v.44h.44v.44h.44V310h.44v.44h.43v.44h.44v.44h.44v.44h.44v.44h.44v.43h.44v.44h.43v.44h.44V314h.44v.44h.44v.44h.44v.43h.44v.44h.43v.44h.44v.44h.44v.44h.44v.44h.44v.43h.44v.44h.43v.44h.44v.44h.44v.44h.44v.44h.44v.43h.44V321h.43v.44h.44v.44h.44v.44h.44v.44h.44v.43h.44v.44h.43v.44h.44v.44h.44v.44h.44v.44h.44v.43h.44v.44h.43v.44h.44v.44h.44v.44h.44V328h.44v.43h.44v.44h.43v.44h.44v.44h.44v.44h.44v.44h.44v.43h.44v.44h.43V332h.44v.44h.44v.44h.44v.44h.44v.43h.44v.44h.43v.44h.44V335h.44v.44h.44v.44h.44v.43h.44v.44h.43v.44h.44v.44h.44v.44h.44v.44h.44V339h.44v.44h.43v.44h.44v.44h.44v.44h.17l92.29-92.3Z"/><path class="cls-9" d="M1717.54,248.26l-.22-.21-.22-.23-.22-.21-.22-.23-.22-.21-.21-.22-.23-.22-.21-.22-.23-.22-.21-.22c-.07-.07-.15-.14-.22-.22s-.14-.15-.22-.22l-.22-.21-.22-.23-.22-.21-.22-.23-.22-.21-.21-.22-.23-.22-.21-.22-.23-.22-.21-.22c-.07-.07-.15-.14-.22-.22l-.22-.22-.22-.21-.22-.23-.22-.21-.22-.23-.22-.21-.21-.22-.23-.22-.21-.22-.23-.22-.21-.22-.22-.22c-.08-.07-.14-.15-.22-.22l-.22-.21-.22-.23-.22-.21-.21-.23-.23-.21-.21-.22-.23-.22-.21-.22-.23-.22-.21-.22c-.07-.07-.15-.14-.22-.22l-.22-.22-.22-.21-.22-.23-.22-.21-.21-.23-.23-.21-.21-.22-.23-.22-.21-.22-.23-.22-.21-.22-.22-.22c-.08-.07-.14-.15-.22-.22l-.22-.21-.22-.23-.22-.21-.21-.23-.23-.21-.21-.22-.23-.22-.21-.22-.23-.22-.21-.22c-.07-.07-.15-.14-.22-.22l-.22-.22-.22-.21-.22-.23-.22-.21-.21-.23-.23-.21-.21-.22-.23-.22-.21-.22-.23-.22-.21-.22-.22-.22c-.08-.07-.14-.15-.22-.22l-.22-.21-.22-.23-.22-.21-.21-.23-.23-.21-.21-.22-.23-.22-.21-.22-.23-.22-.21-.22c-.07-.07-.15-.14-.22-.22l-.22-.22-.22-.21-.22-.23-.22-.21-.21-.23-.23-.21-.21-.22-.23-.22-.21-.22-.23-.22-.21-.22-.22-.22c-.08-.07-.14-.15-.22-.22l-.22-.21-.22-.23-.22-.21-.21-.23-.23-.21-.21-.22-.23-.22-.21-.22-.23-.22-.21-.22-.22-.21c-.08-.08-.14-.16-.22-.23l-.22-.21-.22-.23-.22-.21-.21-.23-.23-.21-.21-.22-.23-.22-.21-.22-.23-.22-.21-.22-.22-.21-.22-.23-.22-.21-.22-.23-.22-.21-.21-.23-.23-.21-.21-.22-.23-.22-.21-.22c-.07-.08-.15-.14-.23-.22l-.21-.22-.22-.21-.22-.23-.22-.21-.22-.23-.22-.21-.21-.23-.23-.21-.21-.22-.23-.22-.21-.22c-.07-.08-.15-.14-.23-.22l-.21-.22-.22-.21c-.08-.08-.14-.16-.22-.23l-.22-.21-.22-.23-.22-.21-.21-.23-.23-.21-.21-.22-.23-.22-.21-.22c-.07-.08-.15-.14-.23-.22l-.21-.22-.22-.21c-.08-.08-.14-.16-.22-.23l-.22-.21-.22-.23-.22-.21-.21-.23-.23-.21-.21-.22-.23-.22-.21-.22c-.07-.08-.15-.14-.23-.22l-.21-.22-.22-.21-.22-.23-.22-.21-.22-.23-.22-.21-.21-.23-.23-.21-.21-.22-.23-.22-.21-.22c-.07-.08-.15-.14-.23-.22l-.21-.22-.22-.21-.22-.23-.22-.21-.22-.23-.22-.21-.21-.23-.23-.21-.21-.22-.23-.22-.21-.22c-.07-.08-.15-.14-.23-.22l-.21-.22-.22-.21-.22-.23-.22-.21-.22-.23-.22-.21-.21-.23-.23-.21-.21-.22-.23-.22-.21-.22c-.07-.08-.15-.14-.23-.22l-.21-.22-.22-.21-.22-.23-.22-.21-.22-.23-.22-.21-.21-.22-.23-.22-.21-.22-.23-.22-.21-.22c-.07-.08-.15-.14-.22-.22l-.22-.22-.22-.21-.22-.23-.22-.21-.22-.23-.22-.21-.21-.22-.23-.22-.21-.22-.23-.22-.21-.22c-.07-.08-.15-.14-.22-.22s-.15-.15-.22-.22l-.22-.21-.22-.23-.22-.21-.22-.23-.22-.21-.21-.22-.23-.22-.21-.22-.23-.22-.21-.22c-.07-.08-.15-.14-.22-.22l-.22-.22-.22-.21-.22-.23-.22-.21-.22-.23-.22-.21-.21-.22-.23-.22-.21-.22-.23-.22-.21-.22c-.07-.08-.15-.14-.22-.22l-.22-.22-.22-.21-.22-.23-.22-.21-.22-.23-.22-.21-.21-.22-.23-.22-.21-.22-.23-.22-.21-.22c-.07-.08-.15-.14-.22-.22l-.22-.22-.22-.21-.22-.23-.22-.21-.22-.23-.22-.21-.21-.22-.23-.22-.21-.22-.23-.22-.21-.22c-.07-.08-.15-.14-.22-.22s-.14-.15-.22-.22l-.22-.21-.22-.23-.22-.21-.22-.23-.22-.21-.21-.22-.23-.22-.21-.22-.23-.22-.21-.22c-.07-.08-.15-.14-.22-.22s-.15-.15-.22-.22l-.22-.21-.22-.23-.22-.21-.22-.23-.22-.21-.21-.22-.23-.22-.21-.22-.23-.22-.21-.22c-.07-.08-.15-.14-.22-.22s-.14-.15-.22-.22l-.22-.21-.22-.23-.22-.21-.22-.23-.22-.21-.21-.22-.23-.22-.21-.22-.23-.22-.21-.22c-.07-.08-.15-.14-.22-.22s-.14-.15-.22-.22l-.22-.21-.22-.23-.22-.21-.22-.23-.22-.21-.21-.22-.23-.22-.21-.22-.23-.22-.21-.22-.22-.22c-.08-.07-.14-.15-.22-.22l-.22-.21-.22-.23-.22-.21-.22-.23-.22-.21-.21-.22-.23-.22-.21-.22-.23-.22-.21-.22c-.07-.07-.15-.14-.22-.22s-.14-.15-.22-.22l-.22-.21-.22-.23-.22-.21-.22-.23-.22-.21-.21-.22-.23-.22-.21-.22-.23-.22-.21-.22c-.07-.07-.15-.14-.22-.22s-.14-.15-.22-.22l-.22-.21-.22-.23-.22-.21-.22-.23-.22-.21-.21-.22-.23-.22-.21-.22-.23-.22-.21-.22c-.07-.07-.15-.14-.22-.22s-.14-.15-.22-.22l-.22-.21-.22-.23-.22-.21-.21-.23-.23-.21-.21-.22-.23-.22-.21-.22-.23-.22-.21-.22c-.07-.07-.15-.14-.22-.22s-.14-.15-.22-.22l-.22-.21-.22-.23-.22-.21-.21-.23-.23-.21-.21-.22-.23-.22-.21-.22-.23-.22-.21-.22c-.07-.07-.15-.14-.22-.22s-.14-.15-.22-.22l-.22-.21-.22-.23-.22-.21-.21-.23-.23-.21-.21-.22-.23-.22-.21-.22-.23-.22-.21-.22c-.07-.07-.15-.14-.22-.22s-.14-.15-.22-.22l-.22-.21-.22-.23-.22-.21-.21-.23-.23-.21-.21-.22-.23-.22-.21-.22-.23-.22-.21-.22-.22-.22c-.08-.07-.14-.15-.22-.22l-.22-.21-.22-.23-.22-.21-.21-.23-.23-.21-.21-.22-.23-.22-.21-.22-.23-.22-.21-.22c-.07-.07-.15-.14-.22-.22s-.14-.15-.22-.22l-.22-.21-.22-.23-.22-.21-.21-.23-.23-.21-.21-.22-.23-.22-.21-.22-.23-.22-.21-.22-.22-.22c-.08-.07-.14-.15-.22-.22l-.22-.21-.22-.23-.22-.21-.21-.23-.23-.21-.21-.22-.23-.22-.21-.22-.23-.22-.21-.22-.22-.21c-.08-.08-.14-.16-.22-.23l-.22-.21-.22-.23-.22-.21-.21-.23-.23-.21-.21-.22-.23-.22-.21-.22c-.07-.08-.15-.14-.23-.22l-.21-.22-.22-.21c-.08-.08-.14-.16-.22-.23l-.22-.21-.22-.23-.22-.21-.21-.23-.23-.21-.21-.22-.23-.22-.21-.22c-.07-.08-.15-.14-.23-.22l-.21-.22-.22-.21-.22-.23-.22-.21-.22-.23-.22-.21-.21-.23-.23-.21-.21-.22-.23-.22-.21-.22c-.07-.08-.15-.14-.23-.22l-.21-.22-.22-.21-.22-.23-.22-.21-.22-.23-.22-.21-.21-.23-.23-.21-.21-.22-.23-.22-.21-.22c-.07-.08-.15-.14-.23-.22l-.21-.22-.22-.21-.22-.23-.22-.21-.22-.23-.22-.21-.21-.23-.23-.21-.21-.22-.23-.22-.21-.22c-.07-.08-.15-.14-.22-.22l-.22-.22-.22-.21c-.08-.08-.14-.16-.22-.23l-.22-.21-.22-.23-.22-.21-.21-.23-.23-.21-.21-.22-.23-.22-.21-.22c-.07-.08-.15-.14-.23-.22l-.21-.22-.22-.21-.22-.23-.22-.21-.22-.23-.22-.21-.21-.23a17.6,17.6,0,0,0-12.89-5.36,17.31,17.31,0,0,0-12.66,5.36,17.56,17.56,0,0,0-5.36,12.89,17.28,17.28,0,0,0,5.36,12.66l.22.22.22.22c.07.08.14.14.22.22l.21.22.23.22.21.22.23.21.21.23.22.21.22.23.22.21.22.22c.07.08.15.15.22.22s.14.15.22.22.14.14.22.22l.21.22.23.22.21.22.23.21.21.23.22.21.22.23.22.21c.07.07.14.15.22.22l.22.22.21.22.23.22.21.22.23.22.21.22.23.21.21.23.22.21.22.23.22.21.22.22c.07.08.15.15.22.22l.21.22.23.22.21.22.23.22.21.22.23.21.21.23.22.21.22.23.22.21c.07.07.14.15.22.22l.22.22.21.22.23.22.21.22.23.21.21.23.23.21.21.23.22.21.22.23.22.21.22.22c.07.08.15.15.22.22l.21.22.23.22.21.22.23.22.21.22.23.21.21.23.22.21.22.23.22.21c.07.07.14.15.22.22l.22.22.21.22.23.22.21.22.2.19h-19.62V288.56h.44V289h.44v.43h.43v.44h.44v.44h.44v.44h.44v.44h.44v.44h.44v.43h.43v.44h.44v.44h.44v.44h.44v.44h.44v.44h.44v.43h.43v.44h.44v.44h.44V296h.44v.44h.44v.44h.44v.43h.43v.44h.44v.44h.44v.44h.44v.44h.44v.43h.44V300h.43v.44h.44v.44h.44v.44h.44v.44h.44v.43h.44v.44h.43V303h.44v.44h.44v.44h.44v.44h.44v.43h.44v.44h.43v.44h.44v.44h.44v.44h.44V307h.44v.43h.44v.44h.43v.44h.44v.44h.44v.44h.44v.44h.44V310h.44v.44h.43v.44h.44v.44h.44v.44h.44v.44h.44v.43h.44v.44h.43v.44h.44V314h.44v.44h.44v.44h.44v.43h.44v.44h.43v.44h.44v.44h.44v.44h.44v.44h.44v.43h.44v.44h.43v.44h.44v.44h.44v.44h.44v.44h.44v.43h.44V321h.43v.44h.44v.44h.44v.44h.44v.44h.44v.43h.44v.44h.43v.44h.44v.44h.44v.44h.44v.44h.44v.43h.44v.44h.43v.44h.44v.44h.44v.44h.44V328h.44v.43h.44v.44h.43v.44h.44v.44h.44v.44h.44v.44h.44v.43h.44v.44h.43V332h.44v.44h.44v.44h.44v.44h.44v.43h.44v.44h.43v.44h.44V335h.44v.44h.44v.44h.44v.43h.44v.44h.43v.44h.44v.44h.44v.44h.44v.44h.44V339h.44v.44h.43v.44h.44v.44h.44v.44h.17l92.29-92.3Z"/><path class="cls-2" d="M1575.84,132.1a17.31,17.31,0,0,1,12.66-5.36A18.3,18.3,0,0,1,1606.75,145a17.31,17.31,0,0,1-5.36,12.66A17.56,17.56,0,0,1,1588.5,163a18.31,18.31,0,0,1-18-18A17.56,17.56,0,0,1,1575.84,132.1Z"/><rect class="cls-2" x="1573.07" y="174.5" width="30.57" height="114.06"/><path class="cls-2" d="M1348.57,412.88a8.46,8.46,0,1,1,6,2.54A8.24,8.24,0,0,1,1348.57,412.88Zm1.3,83.29a6.47,6.47,0,0,1-1.88-4.75V433.61a6.4,6.4,0,0,1,1.88-4.81,6.57,6.57,0,0,1,4.74-1.82,6.25,6.25,0,0,1,6.63,6.63v57.81a6.58,6.58,0,0,1-1.82,4.75,6.39,6.39,0,0,1-4.81,1.88A6.46,6.46,0,0,1,1349.87,496.17Z"/><path class="cls-2" d="M1392.75,495a19.84,19.84,0,0,1-7-8.58,30,30,0,0,1-2.47-12.41V403.07a6.5,6.5,0,1,1,13,0V474a15.49,15.49,0,0,0,1.82,7.93q1.81,3.12,4.68,3.12h3.24a5.42,5.42,0,0,1,4.23,1.82,6.76,6.76,0,0,1,1.62,4.68,5.55,5.55,0,0,1-2.47,4.67,10.4,10.4,0,0,1-6.36,1.82h-.26A17.49,17.49,0,0,1,1392.75,495Z"/><path class="cls-2" d="M1488.31,428.67a6.52,6.52,0,0,1,1.82,4.81v57.94a6.58,6.58,0,0,1-1.82,4.75,6.67,6.67,0,0,1-11.44-4.75V490a28.94,28.94,0,0,1-9.87,6.43,34.7,34.7,0,0,1-28.33-1.63,27.4,27.4,0,0,1-11.17-11.37q-4-7.47-4-18v-32a6.63,6.63,0,1,1,13.26,0v32q0,10.53,5.65,15.92t15,5.39a22.18,22.18,0,0,0,9.94-2.21,17.56,17.56,0,0,0,7-6,14.76,14.76,0,0,0,2.53-8.44V433.48a6.37,6.37,0,0,1,1.89-4.81,7.17,7.17,0,0,1,9.55,0Z"/><path class="cls-2" d="M1606.48,433.74q6.94,7.39,7,20.66v37.16a6.57,6.57,0,0,1-1.82,4.74,6.66,6.66,0,0,1-11.43-4.74V454.4q0-7.93-4-12t-10.59-4.1a14.52,14.52,0,0,0-11.11,4.68,16.87,16.87,0,0,0-4.35,12v36.65a6.57,6.57,0,0,1-1.82,4.74,6.38,6.38,0,0,1-4.8,1.88,6.43,6.43,0,0,1-6.63-6.62V454.4q0-7.93-4-12a14.09,14.09,0,0,0-10.59-4.1,14.64,14.64,0,0,0-11.24,4.68,16.87,16.87,0,0,0-4.35,12v36.65a6.57,6.57,0,0,1-1.82,4.74,6.67,6.67,0,0,1-11.44-4.74V433.74a6.36,6.36,0,0,1,1.89-4.81,6.63,6.63,0,0,1,11.37,4.55,23.89,23.89,0,0,1,8-5.27,27,27,0,0,1,10.14-1.88,26,26,0,0,1,11.88,2.66,22.82,22.82,0,0,1,8.64,7.6,27.16,27.16,0,0,1,9.75-7.53,30.34,30.34,0,0,1,13-2.73Q1599.53,426.33,1606.48,433.74Z"/><path class="cls-2" d="M1637.27,412.88a8.45,8.45,0,1,1,6,2.54A8.25,8.25,0,0,1,1637.27,412.88Zm1.3,83.29a6.44,6.44,0,0,1-1.89-4.75V433.61a6.37,6.37,0,0,1,1.89-4.81,6.6,6.6,0,0,1,11.37,4.81v57.81a6.58,6.58,0,0,1-1.82,4.75,7,7,0,0,1-9.55,0Z"/><path class="cls-2" d="M1726.07,430.23a27.48,27.48,0,0,1,11.18,11.37q4,7.47,4,18v32a6.63,6.63,0,1,1-13.25,0v-32q0-10.51-5.65-15.91t-15-5.4a22.21,22.21,0,0,0-9.94,2.21,17.75,17.75,0,0,0-7,6,14.79,14.79,0,0,0-2.54,8.44v36.65a6.53,6.53,0,0,1-1.82,4.74,6.38,6.38,0,0,1-4.8,1.88,6.43,6.43,0,0,1-6.63-6.62V433.61a6.4,6.4,0,0,1,1.88-4.81,6.58,6.58,0,0,1,4.75-1.82,6.25,6.25,0,0,1,6.62,6.63V435a29,29,0,0,1,9.88-6.44,34.68,34.68,0,0,1,28.32,1.63Z"/><path class="cls-2" d="M1813.58,431.2a35,35,0,0,1,12.86,13,36.21,36.21,0,0,1,4.74,18.38v29a6.63,6.63,0,1,1-13.25,0v-4.81a32.71,32.71,0,0,1-42,7.14A32.7,32.7,0,0,1,1764,481a38.7,38.7,0,0,1-4.36-18.39,36.57,36.57,0,0,1,4.68-18.38,34.27,34.27,0,0,1,12.93-13,36,36,0,0,1,18.25-4.74A35.32,35.32,0,0,1,1813.58,431.2Zm-6.37,52.49a22.42,22.42,0,0,0,8.25-8.7,25.68,25.68,0,0,0,3-12.41,26,26,0,0,0-3-12.47,22.88,22.88,0,0,0-31.76-8.77,22.73,22.73,0,0,0-8.32,8.77,25.5,25.5,0,0,0-3.05,12.47,25.16,25.16,0,0,0,3.05,12.41,22.89,22.89,0,0,0,8.32,8.7,23.25,23.25,0,0,0,23.51,0Z"/></g></g></svg>