<svg id="Layer_1" data-name="Layer 1" xmlns="http://www.w3.org/2000/svg" viewBox="0 0 105 40"><defs><style>.cls-1{fill:#e8814a;}.cls-2{fill:#7c5df5;}</style></defs><title>Dploy_Color</title><path class="cls-1" d="M22.77,6.27a.47.47,0,1,0-.46.47A.47.47,0,0,0,22.77,6.27Z"/><path class="cls-1" d="M42.94,7.82a9.34,9.34,0,0,0-3.32-2.19,11.39,11.39,0,0,0-4.22-.76H26.65a3.84,3.84,0,0,0-.77,7.6,1.26,1.26,0,0,0,.43,2,1.54,1.54,0,0,0-.91,1.41,1.62,1.62,0,0,0,.26.87,2.06,2.06,0,0,0,.35,4,1.32,1.32,0,0,0,0,1.71,2.52,2.52,0,0,0,.62,5h9.45a9.27,9.27,0,0,0,4-.84,8.81,8.81,0,0,0,3.1-2.34,10.66,10.66,0,0,0,2-3.64,15,15,0,0,0,.7-4.72,12.86,12.86,0,0,0-.78-4.62A10.47,10.47,0,0,0,42.94,7.82ZM39.65,21.69a5.18,5.18,0,0,1-4.49,1.92H32.61a1.36,1.36,0,0,1-1.36-1.36V10.14a1.36,1.36,0,0,1,1.36-1.36h2.14a9.31,9.31,0,0,1,2.89.39,4.33,4.33,0,0,1,2,1.26,5.26,5.26,0,0,1,1.11,2.23,13.89,13.89,0,0,1,.34,3.26A9.8,9.8,0,0,1,39.65,21.69Z"/><path class="cls-1" d="M61.4,12.67a6.37,6.37,0,0,0-2.29-1.77,6.94,6.94,0,0,0-2.91-.62,5.09,5.09,0,0,0-4.42,2.13.14.14,0,0,1-.25-.08v-.26a1.36,1.36,0,0,0-1.36-1.34H48.61a1.36,1.36,0,0,0-1.36,1.36V34a1.36,1.36,0,0,0,1.36,1.36h1.63A1.36,1.36,0,0,0,51.6,34V25.7a.14.14,0,0,1,.25-.09,5.72,5.72,0,0,0,4.72,2.3,6.48,6.48,0,0,0,2.91-.63,6.08,6.08,0,0,0,2.16-1.78A8.46,8.46,0,0,0,63,22.76a12.76,12.76,0,0,0,.46-3.49,12.22,12.22,0,0,0-.55-3.78A8.42,8.42,0,0,0,61.4,12.67ZM55.14,24.13q-3.7,0-3.71-5.44a5.37,5.37,0,0,1,1.07-3.47,3.31,3.31,0,0,1,2.68-1.33A3.25,3.25,0,0,1,57.9,15.3,6,6,0,0,1,59,19Q59,24.14,55.14,24.13Z"/><rect class="cls-1" x="64.87" y="4.6" width="4.42" height="22.87" rx="1.36"/><path class="cls-1" d="M85.48,12.68a7.7,7.7,0,0,0-2.67-1.77,9.46,9.46,0,0,0-3.54-.63,9.62,9.62,0,0,0-3.59.63A7.68,7.68,0,0,0,73,12.7a7.77,7.77,0,0,0-1.72,2.79,10.64,10.64,0,0,0-.59,3.61,10.53,10.53,0,0,0,.58,3.57,7.55,7.55,0,0,0,1.68,2.79,7.82,7.82,0,0,0,2.71,1.81,9.65,9.65,0,0,0,3.64.64,9.43,9.43,0,0,0,3.52-.63,7.49,7.49,0,0,0,2.69-1.78,8,8,0,0,0,1.7-2.78,10.29,10.29,0,0,0,.6-3.62,10.49,10.49,0,0,0-.6-3.64A7.74,7.74,0,0,0,85.48,12.68ZM79.27,24.2q-4,0-4-5.1t4-5.07q4,0,4,5.07T79.27,24.2Z"/><path class="cls-1" d="M102.92,10.73h-1.7a1.36,1.36,0,0,0-1.36,1.36v8.85a3,3,0,0,1-.94,2.24,3.45,3.45,0,0,1-2.47.89c-1.88,0-2.82-1.05-2.82-3.13V12.09a1.36,1.36,0,0,0-1.36-1.36h-1.7a1.36,1.36,0,0,0-1.37,1.36v9.49a6.55,6.55,0,0,0,.46,2.5A5.78,5.78,0,0,0,90.94,26a5.47,5.47,0,0,0,1.94,1.22,6.75,6.75,0,0,0,2.45.43A6.15,6.15,0,0,0,98.14,27a3.7,3.7,0,0,0,1.47-1.28.14.14,0,0,1,.25.08V28a4.3,4.3,0,0,1-.26,1.5,3.56,3.56,0,0,1-.68,1.14,3.19,3.19,0,0,1-1,.71,2.7,2.7,0,0,1-1.16.26,3.62,3.62,0,0,1-2.6-.85,2.89,2.89,0,0,1-.75-1.32,1.35,1.35,0,0,0-1.3-1H90.67A1.36,1.36,0,0,0,89.33,30,6.36,6.36,0,0,0,91,33.53a7.51,7.51,0,0,0,5.55,1.87,8.77,8.77,0,0,0,3-.51,7.12,7.12,0,0,0,2.45-1.47,6.57,6.57,0,0,0,1.63-2.34,8,8,0,0,0,.6-3.17V12.09A1.36,1.36,0,0,0,102.92,10.73Z"/><path class="cls-2" d="M15.44,26.09l1.94-5.56a.46.46,0,0,0-.11-.46l-1.4-1.4-2-2C16,12.43,11.7,8,11.7,8l-1-1-1-1A.92.92,0,0,0,8.4,6h0l-1,1-1,1s-4.28,4.43-2.14,8.64l-2,2-1.4,1.4a.44.44,0,0,0-.1.46l1.94,5.56a.43.43,0,0,0,.72.16L6.76,22.9v.93A1.19,1.19,0,0,0,8,25h2.22a1.19,1.19,0,0,0,1.19-1.19V22.9l3.35,3.35A.44.44,0,0,0,15.44,26.09Zm-8-13.83a1.59,1.59,0,1,1,1.59,1.6A1.59,1.59,0,0,1,7.47,12.26Z"/><path class="cls-1" d="M20.9,10.2a.5.5,0,0,0-.5.5.5.5,0,0,0,.5.51.51.51,0,0,0,.51-.51A.5.5,0,0,0,20.9,10.2Z"/><path class="cls-1" d="M22.7,22.29a.65.65,0,1,0,.65.65A.65.65,0,0,0,22.7,22.29Z"/></svg>