<?xml version="1.0" encoding="utf-8"?>
<!-- Generator: Adobe Illustrator 24.0.3, SVG Export Plug-In . SVG Version: 6.00 Build 0)  -->
<svg version="1.1" id="Layer_1" xmlns="http://www.w3.org/2000/svg" xmlns:xlink="http://www.w3.org/1999/xlink" x="0px" y="0px"
	 viewBox="0 0 250 250" style="enable-background:new 0 0 250 250;" xml:space="preserve">
<style type="text/css">
	.st0{fill:#C5CCE0;}
	.st1{fill:#FFFFFF;}
</style>
<title>taza</title>
<rect class="st0" width="250" height="250"/>
<g>
	<path class="st1" d="M166.7,67.5c-0.9,0-1.8-0.1-2.6,0H77.2c-3.5,0-6.2,2.8-6.3,6.3v57.8c0,11,8.9,19.9,19.9,19.9c0,0,0,0,0,0h54.4
		c10.4,0,18.8-8.4,18.8-18.8l0,0v-1.8c0.9,0.1,1.8,0.1,2.6,0.1c18.6,0,33.7-14.2,33.7-31.7S185.3,67.5,166.7,67.5z M166.7,114.4
		c-0.9,0-1.8-0.1-2.6-0.2v-30c0.9-0.1,1.8-0.2,2.6-0.2c9.5,0,17.2,6.8,17.2,15.2S176.2,114.4,166.7,114.4z"/>
	<path class="st1" d="M50.1,161.3h144.7l0,0l0,0c0,11.7-9.5,21.1-21.1,21.1H71.2C59.6,182.5,50.1,173,50.1,161.3L50.1,161.3
		L50.1,161.3z"/>
</g>
</svg>
